<svg xmlns="http://www.w3.org/2000/svg"
  width="1200" height="760" viewBox="0 0 1200 760"
  fill="none" role="img" aria-label="Boulai premium transparent causal intelligence animation">

  <defs>
    <linearGradient id="leftFadeGradient" x1="0" x2="1" y1="0" y2="0">
      <stop offset="0" stop-color="black"/>
      <stop offset=".12" stop-color="white"/>
      <stop offset=".92" stop-color="white"/>
      <stop offset="1" stop-color="black"/>
    </linearGradient>

    <mask id="softCanvasFade" maskUnits="objectBoundingBox" maskContentUnits="objectBoundingBox">
      <rect x="0" y="0" width="1" height="1" fill="url(#leftFadeGradient)"/>
    </mask>

    <linearGradient id="trajectoryStroke" x1="260" y1="200" x2="1120" y2="610" gradientUnits="userSpaceOnUse">
      <stop stop-color="#8EA3B8" stop-opacity="0"/>
      <stop offset=".24" stop-color="#AFC1D4" stop-opacity=".42"/>
      <stop offset=".58" stop-color="#DCEBFF" stop-opacity=".76"/>
      <stop offset="1" stop-color="#FFFFFF" stop-opacity=".58"/>
    </linearGradient>

    <linearGradient id="pulseStroke" x1="300" y1="220" x2="1110" y2="600" gradientUnits="userSpaceOnUse">
      <stop stop-color="#7CA8D8" stop-opacity="0"/>
      <stop offset=".42" stop-color="#E8F4FF" stop-opacity=".96"/>
      <stop offset=".72" stop-color="#A7C7EF" stop-opacity=".70"/>
      <stop offset="1" stop-color="#FFFFFF" stop-opacity="0"/>
    </linearGradient>

    <linearGradient id="subtleWarmStroke" x1="440" y1="170" x2="1060" y2="610" gradientUnits="userSpaceOnUse">
      <stop stop-color="#D9E8FF" stop-opacity=".12"/>
      <stop offset=".58" stop-color="#F4F8FF" stop-opacity=".50"/>
      <stop offset="1" stop-color="#D2DEF0" stop-opacity=".18"/>
    </linearGradient>

    <linearGradient id="bandFill" x1="330" y1="210" x2="1090" y2="610" gradientUnits="userSpaceOnUse">
      <stop stop-color="#8CAFD6" stop-opacity="0"/>
      <stop offset=".50" stop-color="#AFCFFF" stop-opacity=".075"/>
      <stop offset="1" stop-color="#FFFFFF" stop-opacity=".12"/>
    </linearGradient>

    <radialGradient id="fieldAura" cx="50%" cy="50%" r="52%">
      <stop stop-color="#8AB7E8" stop-opacity=".18"/>
      <stop offset=".42" stop-color="#23405F" stop-opacity=".09"/>
      <stop offset="1" stop-color="#000000" stop-opacity="0"/>
    </radialGradient>

    <radialGradient id="nodeCore" cx="38%" cy="32%" r="72%">
      <stop stop-color="#FFFFFF"/>
      <stop offset=".46" stop-color="#DCEBFF"/>
      <stop offset="1" stop-color="#7C93A8"/>
    </radialGradient>

    <filter id="largeBlur" x="-40%" y="-40%" width="180%" height="180%">
      <feGaussianBlur stdDeviation="34"/>
    </filter>

    <filter id="lineGlow" x="-30%" y="-30%" width="160%" height="160%">
      <feGaussianBlur stdDeviation="2.1" result="blur"/>
      <feMerge>
        <feMergeNode in="blur"/>
        <feMergeNode in="SourceGraphic"/>
      </feMerge>
    </filter>

    <filter id="nodeGlow" x="-250%" y="-250%" width="600%" height="600%">
      <feGaussianBlur stdDeviation="4.8" result="blur"/>
      <feMerge>
        <feMergeNode in="blur"/>
        <feMergeNode in="SourceGraphic"/>
      </feMerge>
    </filter>

    <filter id="microGlow" x="-250%" y="-250%" width="600%" height="600%">
      <feGaussianBlur stdDeviation="2.4" result="blur"/>
      <feMerge>
        <feMergeNode in="blur"/>
        <feMergeNode in="SourceGraphic"/>
      </feMerge>
    </filter>

    <path id="major-path-0" d="M382.0 206.0 C560.0 206.0 770.0 268.0 1072.0 242.0"/>
<path id="major-path-1" d="M342.0 304.0 C555.0 294.0 780.0 350.0 1086.0 356.0"/>
<path id="major-path-2" d="M356.0 420.0 C565.0 440.0 784.0 366.0 1068.0 474.0"/>
<path id="major-path-3" d="M398.0 548.0 C590.0 518.0 790.0 558.0 1098.0 594.0"/>
<path id="major-path-4" d="M320.0 382.0 C550.0 374.0 776.0 468.0 1068.0 474.0"/>
<path id="major-path-5" d="M284.0 492.0 C512.0 486.0 770.0 292.0 1072.0 242.0"/>
<path id="intake-a" d="M60 194 C180 188 250 188 382 206"/>
<path id="intake-b" d="M40 316 C160 312 242 300 342 304"/>
<path id="intake-c" d="M90 436 C190 430 276 414 356 420"/>
<path id="intake-d" d="M140 566 C235 558 318 548 398 548"/>
  </defs>

  <style>
    svg {
      background: transparent;
      overflow: visible;
      color-scheme: dark;
    }

    .asset {
      mask: url(#softCanvasFade);
      transform-origin: 720px 380px;
    }

    .ambient-field {
      animation: fieldBreath 12s ease-in-out infinite;
      transform-origin: 760px 390px;
    }

    .evidence-rail {
      stroke: #8191A0;
      stroke-width: .82;
      opacity: .22;
      stroke-linecap: round;
      stroke-dasharray: 64 22;
      animation: railScan 9.5s linear infinite;
      animation-delay: var(--delay);
    }

    .evidence-dot {
      fill: #DDE9F7;
      filter: url(#microGlow);
      animation: evidenceWake 6.8s ease-in-out infinite;
      animation-delay: var(--delay);
    }

    .orbit-fragment {
      stroke: url(#subtleWarmStroke);
      stroke-width: .56;
      stroke-linecap: round;
      animation: orbitDrift 22s linear infinite;
      animation-delay: var(--delay);
      filter: url(#lineGlow);
    }

    .reasoning-contour {
      stroke: url(#trajectoryStroke);
      stroke-width: var(--stroke-width);
      stroke-linecap: round;
      stroke-dasharray: .18 .82;
      stroke-dashoffset: 1;
      filter: url(#lineGlow);
      animation: contourSolve 10.6s cubic-bezier(.42,0,.18,1) infinite;
      animation-delay: var(--delay);
    }

    .confidence-band {
      fill: url(#bandFill);
      opacity: .16;
      animation: bandBreathe 9.4s ease-in-out infinite;
      animation-delay: var(--delay);
    }

    .trajectory {
      fill: none;
      stroke-linecap: round;
      stroke-linejoin: round;
      filter: url(#lineGlow);
    }

    .trajectory-base {
      stroke: url(#trajectoryStroke);
      stroke-width: 1.04;
      opacity: .48;
      stroke-dasharray: 1;
      stroke-dashoffset: 1;
      animation: trajectoryBuild 9.2s cubic-bezier(.44,0,.18,1) infinite;
      animation-delay: var(--delay);
    }

    .trajectory-pulse {
      stroke: url(#pulseStroke);
      stroke-width: 2.15;
      opacity: 0;
      stroke-dasharray: .034 .966;
      stroke-dashoffset: 1;
      animation: trajectoryPulse 9.2s linear infinite;
      animation-delay: var(--delay);
    }

    .dag-edge {
      stroke: #9EB1C5;
      stroke-width: .64;
      stroke-linecap: round;
      stroke-linejoin: round;
      opacity: .22;
      stroke-dasharray: 1;
      stroke-dashoffset: 1;
      filter: url(#lineGlow);
      animation: dagResolve 8.6s cubic-bezier(.46,0,.18,1) infinite;
      animation-delay: var(--delay);
    }

    .dag-pulse {
      stroke: #EFF7FF;
      stroke-width: 1.38;
      stroke-linecap: round;
      opacity: 0;
      stroke-dasharray: .04 .96;
      stroke-dashoffset: 1;
      filter: url(#lineGlow);
      animation: dagSignal 8.6s linear infinite;
      animation-delay: var(--delay);
    }

    .dag-node {
      opacity: .42;
      animation: nodeResolve 8.6s ease-in-out infinite;
      animation-delay: var(--delay);
    }

    .dag-aura {
      fill: #789ABD;
      opacity: .11;
      filter: url(#nodeGlow);
    }

    .dag-ring {
      fill: transparent;
      stroke: #DDEBFA;
      stroke-width: .58;
      opacity: .48;
    }

    .dag-core {
      fill: #EAF2FB;
      opacity: .82;
      filter: url(#nodeGlow);
    }

    .micro-cell {
      fill: transparent;
      stroke: #9FB1C3;
      stroke-width: .55;
      animation: cellPhase 7.6s ease-in-out infinite;
      animation-delay: var(--delay);
    }

    .micro-tick {
      fill: #C2D2E4;
      filter: url(#microGlow);
      animation: tickPhase 5.8s ease-in-out infinite;
      animation-delay: var(--delay);
    }

    .decision-node {
      animation: decisionPhase 8.4s ease-in-out infinite;
      animation-delay: var(--delay);
    }

    .decision-halo {
      fill: #B7CAE0;
      opacity: .10;
      filter: url(#nodeGlow);
    }

    .decision-ring-outer {
      fill: transparent;
      stroke: #CAD7E6;
      stroke-width: .62;
      opacity: .22;
    }

    .decision-ring-inner {
      fill: transparent;
      stroke: #DDE9F6;
      stroke-width: .82;
      opacity: .56;
    }

    .decision-core {
      fill: url(#nodeCore);
      opacity: .92;
      filter: url(#nodeGlow);
    }

    .signal-particle {
      fill: #F2F8FF;
      filter: url(#nodeGlow);
    }

    .signal-particle.dim {
      fill: #AFC7E2;
      filter: url(#microGlow);
    }

    @keyframes fieldBreath {
      0%, 100% { opacity: .72; transform: scale(.99); }
      50% { opacity: .98; transform: scale(1.012); }
    }

    @keyframes railScan {
      from { stroke-dashoffset: 0; }
      to { stroke-dashoffset: -172; }
    }

    @keyframes evidenceWake {
      0%, 100% { opacity: .18; }
      38% { opacity: .64; }
      62% { opacity: .38; }
    }

    @keyframes orbitDrift {
      from { stroke-dashoffset: 0; }
      to { stroke-dashoffset: -620; }
    }

    @keyframes contourSolve {
      0% { stroke-dashoffset: 1; opacity: .08; }
      28% { opacity: .30; }
      56% { stroke-dashoffset: .12; opacity: .22; }
      100% { stroke-dashoffset: -.20; opacity: .09; }
    }

    @keyframes bandBreathe {
      0%, 100% { opacity: .05; }
      45% { opacity: .18; }
      75% { opacity: .10; }
    }

    @keyframes trajectoryBuild {
      0% { stroke-dashoffset: 1; opacity: .08; }
      24% { stroke-dashoffset: .48; opacity: .34; }
      50% { stroke-dashoffset: 0; opacity: .58; }
      76% { stroke-dashoffset: 0; opacity: .42; }
      100% { stroke-dashoffset: -.12; opacity: .10; }
    }

    @keyframes trajectoryPulse {
      0%, 23% { stroke-dashoffset: 1; opacity: 0; }
      32% { opacity: .92; }
      68% { stroke-dashoffset: 0; opacity: .52; }
      88%, 100% { stroke-dashoffset: -.18; opacity: 0; }
    }

    @keyframes dagResolve {
      0% { stroke-dashoffset: 1; opacity: .04; }
      34% { stroke-dashoffset: .34; opacity: .20; }
      58% { stroke-dashoffset: 0; opacity: .28; }
      100% { stroke-dashoffset: -.16; opacity: .06; }
    }

    @keyframes dagSignal {
      0%, 25% { stroke-dashoffset: 1; opacity: 0; }
      36% { opacity: .60; }
      72% { stroke-dashoffset: 0; opacity: .28; }
      92%, 100% { stroke-dashoffset: -.20; opacity: 0; }
    }

    @keyframes nodeResolve {
      0%, 100% { opacity: .22; }
      35% { opacity: .88; }
      72% { opacity: .48; }
    }

    @keyframes cellPhase {
      0%, 100% { stroke-opacity: .35; }
      50% { stroke-opacity: .72; }
    }

    @keyframes tickPhase {
      0%, 100% { fill-opacity: .32; }
      44% { fill-opacity: .82; }
      70% { fill-opacity: .44; }
    }

    @keyframes decisionPhase {
      0%, 100% { opacity: .58; }
      34% { opacity: .96; }
      72% { opacity: .78; }
    }

    @media (prefers-reduced-motion: reduce) {
      .ambient-field, .evidence-rail, .evidence-dot, .orbit-fragment,
      .reasoning-contour, .confidence-band, .trajectory-base, .trajectory-pulse,
      .dag-edge, .dag-pulse, .dag-node, .micro-cell, .micro-tick, .decision-node {
        animation: none !important;
      }
      .trajectory-base, .dag-edge, .reasoning-contour { stroke-dashoffset: 0; }
      .trajectory-pulse, .dag-pulse, .signal-particle { display: none; }
    }
  </style>

  <g class="asset">
    <!-- Soft transparent field: sits on the site background, no rectangle -->
    <g class="ambient-field" filter="url(#largeBlur)">
      <ellipse cx="760" cy="386" rx="360" ry="250" fill="url(#fieldAura)"/>
      <ellipse cx="895" cy="398" rx="240" ry="170" fill="url(#fieldAura)" opacity=".68"/>
    </g>

    <!-- Enterprise data fabric / quiet infrastructure layer -->
    <g class="micro-grid">
      <rect class="micro-cell" x="690" y="430" width="12" height="12" rx="2.4" style="--delay:-0.00s; opacity:0.035"/>
<rect class="micro-cell" x="734" y="430" width="12" height="12" rx="2.4" style="--delay:-0.45s; opacity:0.047"/>
<rect class="micro-cell" x="778" y="430" width="12" height="12" rx="2.4" style="--delay:-0.90s; opacity:0.059"/>
<rect class="micro-cell" x="822" y="430" width="12" height="12" rx="2.4" style="--delay:-1.35s; opacity:0.071"/>
<rect class="micro-cell" x="866" y="430" width="12" height="12" rx="2.4" style="--delay:-1.80s; opacity:0.035"/>
<rect class="micro-cell" x="910" y="430" width="12" height="12" rx="2.4" style="--delay:-2.25s; opacity:0.047"/>
<rect class="micro-cell" x="954" y="430" width="12" height="12" rx="2.4" style="--delay:-2.70s; opacity:0.059"/>
<rect class="micro-cell" x="690" y="492" width="12" height="12" rx="2.4" style="--delay:-1.10s; opacity:0.047"/>
<rect class="micro-cell" x="734" y="492" width="12" height="12" rx="2.4" style="--delay:-1.55s; opacity:0.059"/>
<rect class="micro-cell" x="778" y="492" width="12" height="12" rx="2.4" style="--delay:-2.00s; opacity:0.071"/>
<rect class="micro-cell" x="822" y="492" width="12" height="12" rx="2.4" style="--delay:-2.45s; opacity:0.035"/>
<rect class="micro-cell" x="866" y="492" width="12" height="12" rx="2.4" style="--delay:-2.90s; opacity:0.047"/>
<rect class="micro-cell" x="910" y="492" width="12" height="12" rx="2.4" style="--delay:-3.35s; opacity:0.059"/>
<rect class="micro-cell" x="954" y="492" width="12" height="12" rx="2.4" style="--delay:-3.80s; opacity:0.071"/>
<rect class="micro-cell" x="690" y="554" width="12" height="12" rx="2.4" style="--delay:-2.20s; opacity:0.059"/>
<rect class="micro-cell" x="734" y="554" width="12" height="12" rx="2.4" style="--delay:-2.65s; opacity:0.071"/>
<rect class="micro-cell" x="778" y="554" width="12" height="12" rx="2.4" style="--delay:-3.10s; opacity:0.035"/>
<rect class="micro-cell" x="822" y="554" width="12" height="12" rx="2.4" style="--delay:-3.55s; opacity:0.047"/>
<rect class="micro-cell" x="866" y="554" width="12" height="12" rx="2.4" style="--delay:-4.00s; opacity:0.059"/>
<rect class="micro-cell" x="910" y="554" width="12" height="12" rx="2.4" style="--delay:-4.45s; opacity:0.071"/>
<rect class="micro-cell" x="954" y="554" width="12" height="12" rx="2.4" style="--delay:-4.90s; opacity:0.035"/>
<rect class="micro-cell" x="690" y="616" width="12" height="12" rx="2.4" style="--delay:-3.30s; opacity:0.071"/>
<rect class="micro-cell" x="734" y="616" width="12" height="12" rx="2.4" style="--delay:-3.75s; opacity:0.035"/>
<rect class="micro-cell" x="778" y="616" width="12" height="12" rx="2.4" style="--delay:-4.20s; opacity:0.047"/>
<rect class="micro-cell" x="822" y="616" width="12" height="12" rx="2.4" style="--delay:-4.65s; opacity:0.059"/>
<rect class="micro-cell" x="866" y="616" width="12" height="12" rx="2.4" style="--delay:-5.10s; opacity:0.071"/>
<rect class="micro-cell" x="910" y="616" width="12" height="12" rx="2.4" style="--delay:-5.55s; opacity:0.035"/>
<rect class="micro-cell" x="954" y="616" width="12" height="12" rx="2.4" style="--delay:-6.00s; opacity:0.047"/>
<rect class="micro-cell" x="690" y="678" width="12" height="12" rx="2.4" style="--delay:-4.40s; opacity:0.035"/>
<rect class="micro-cell" x="734" y="678" width="12" height="12" rx="2.4" style="--delay:-4.85s; opacity:0.047"/>
<rect class="micro-cell" x="778" y="678" width="12" height="12" rx="2.4" style="--delay:-5.30s; opacity:0.059"/>
<rect class="micro-cell" x="822" y="678" width="12" height="12" rx="2.4" style="--delay:-5.75s; opacity:0.071"/>
<rect class="micro-cell" x="866" y="678" width="12" height="12" rx="2.4" style="--delay:-6.20s; opacity:0.035"/>
<rect class="micro-cell" x="910" y="678" width="12" height="12" rx="2.4" style="--delay:-0.25s; opacity:0.047"/>
<rect class="micro-cell" x="954" y="678" width="12" height="12" rx="2.4" style="--delay:-0.70s; opacity:0.059"/>
    </g>

    <g class="microstructure">
      <rect class="micro-tick" x="964.6" y="297.7" width="4.7" height="1.0" rx=".5" transform="rotate(-19.0 964.6 297.7)" style="--delay:-0.23s; opacity:0.145"/>
<rect class="micro-tick" x="463.2" y="332.3" width="3.2" height="1.0" rx=".5" transform="rotate(0.0 463.2 332.3)" style="--delay:-0.46s; opacity:0.080"/>
<rect class="micro-tick" x="753.8" y="202.8" width="5.7" height="1.0" rx=".5" transform="rotate(19.0 753.8 202.8)" style="--delay:-0.69s; opacity:0.145"/>
<rect class="micro-tick" x="646.8" y="489.2" width="4.3" height="1.0" rx=".5" transform="rotate(-38.0 646.8 489.2)" style="--delay:-0.92s; opacity:0.080"/>
<rect class="micro-tick" x="693.0" y="193.9" width="2.9" height="1.0" rx=".5" transform="rotate(-19.0 693.0 193.9)" style="--delay:-1.15s; opacity:0.145"/>
<rect class="micro-tick" x="793.1" y="400.4" width="5.3" height="1.0" rx=".5" transform="rotate(0.0 793.1 400.4)" style="--delay:-1.38s; opacity:0.080"/>
<rect class="micro-tick" x="526.0" y="373.7" width="4.0" height="1.0" rx=".5" transform="rotate(19.0 526.0 373.7)" style="--delay:-1.61s; opacity:0.145"/>
<rect class="micro-tick" x="620.9" y="191.8" width="2.6" height="1.0" rx=".5" transform="rotate(-38.0 620.9 191.8)" style="--delay:-1.84s; opacity:0.080"/>
<rect class="micro-tick" x="743.0" y="225.6" width="5.0" height="1.0" rx=".5" transform="rotate(-19.0 743.0 225.6)" style="--delay:-2.07s; opacity:0.145"/>
<rect class="micro-tick" x="993.5" y="483.3" width="3.6" height="1.0" rx=".5" transform="rotate(0.0 993.5 483.3)" style="--delay:-2.30s; opacity:0.080"/>
<rect class="micro-tick" x="906.3" y="451.8" width="2.2" height="1.0" rx=".5" transform="rotate(19.0 906.3 451.8)" style="--delay:-2.53s; opacity:0.145"/>
<rect class="micro-tick" x="533.8" y="537.1" width="4.7" height="1.0" rx=".5" transform="rotate(-38.0 533.8 537.1)" style="--delay:-2.76s; opacity:0.080"/>
<rect class="micro-tick" x="903.3" y="198.1" width="5.7" height="1.0" rx=".5" transform="rotate(0.0 903.3 198.1)" style="--delay:-3.22s; opacity:0.080"/>
<rect class="micro-tick" x="686.3" y="450.6" width="4.3" height="1.0" rx=".5" transform="rotate(19.0 686.3 450.6)" style="--delay:-3.45s; opacity:0.145"/>
<rect class="micro-tick" x="967.6" y="488.2" width="2.9" height="1.0" rx=".5" transform="rotate(-38.0 967.6 488.2)" style="--delay:-3.68s; opacity:0.080"/>
<rect class="micro-tick" x="681.8" y="352.3" width="5.3" height="1.0" rx=".5" transform="rotate(-19.0 681.8 352.3)" style="--delay:-3.91s; opacity:0.145"/>
<rect class="micro-tick" x="803.6" y="220.6" width="4.0" height="1.0" rx=".5" transform="rotate(0.0 803.6 220.6)" style="--delay:-4.14s; opacity:0.080"/>
<rect class="micro-tick" x="617.1" y="322.5" width="2.6" height="1.0" rx=".5" transform="rotate(19.0 617.1 322.5)" style="--delay:-4.37s; opacity:0.145"/>
<rect class="micro-tick" x="871.0" y="522.4" width="5.0" height="1.0" rx=".5" transform="rotate(-38.0 871.0 522.4)" style="--delay:-4.60s; opacity:0.080"/>
<rect class="micro-tick" x="752.5" y="482.5" width="3.6" height="1.0" rx=".5" transform="rotate(-19.0 752.5 482.5)" style="--delay:-4.83s; opacity:0.145"/>
<rect class="micro-tick" x="813.3" y="272.5" width="2.2" height="1.0" rx=".5" transform="rotate(0.0 813.3 272.5)" style="--delay:-5.06s; opacity:0.080"/>
<rect class="micro-tick" x="673.2" y="359.0" width="4.7" height="1.0" rx=".5" transform="rotate(19.0 673.2 359.0)" style="--delay:-5.29s; opacity:0.145"/>
<rect class="micro-tick" x="508.7" y="419.3" width="3.2" height="1.0" rx=".5" transform="rotate(-38.0 508.7 419.3)" style="--delay:-5.52s; opacity:0.080"/>
<rect class="micro-tick" x="621.7" y="480.9" width="5.7" height="1.0" rx=".5" transform="rotate(-19.0 621.7 480.9)" style="--delay:-5.75s; opacity:0.145"/>
<rect class="micro-tick" x="717.3" y="270.4" width="4.3" height="1.0" rx=".5" transform="rotate(0.0 717.3 270.4)" style="--delay:-5.98s; opacity:0.080"/>
<rect class="micro-tick" x="430.2" y="359.6" width="2.9" height="1.0" rx=".5" transform="rotate(19.0 430.2 359.6)" style="--delay:-6.21s; opacity:0.145"/>
<rect class="micro-tick" x="523.9" y="302.5" width="5.3" height="1.0" rx=".5" transform="rotate(-38.0 523.9 302.5)" style="--delay:-6.44s; opacity:0.080"/>
<rect class="micro-tick" x="673.7" y="190.5" width="4.0" height="1.0" rx=".5" transform="rotate(-19.0 673.7 190.5)" style="--delay:-6.67s; opacity:0.145"/>
<rect class="micro-tick" x="849.6" y="204.9" width="5.0" height="1.0" rx=".5" transform="rotate(19.0 849.6 204.9)" style="--delay:-7.13s; opacity:0.145"/>
<rect class="micro-tick" x="595.7" y="584.6" width="3.6" height="1.0" rx=".5" transform="rotate(-38.0 595.7 584.6)" style="--delay:-7.36s; opacity:0.080"/>
<rect class="micro-tick" x="672.5" y="555.8" width="2.2" height="1.0" rx=".5" transform="rotate(-19.0 672.5 555.8)" style="--delay:-7.59s; opacity:0.145"/>
<rect class="micro-tick" x="546.3" y="473.0" width="4.7" height="1.0" rx=".5" transform="rotate(0.0 546.3 473.0)" style="--delay:-7.82s; opacity:0.080"/>
<rect class="micro-tick" x="764.0" y="372.8" width="3.2" height="1.0" rx=".5" transform="rotate(19.0 764.0 372.8)" style="--delay:-0.05s; opacity:0.145"/>
<rect class="micro-tick" x="963.9" y="353.0" width="4.3" height="1.0" rx=".5" transform="rotate(-19.0 963.9 353.0)" style="--delay:-0.51s; opacity:0.145"/>
<rect class="micro-tick" x="702.8" y="598.7" width="2.9" height="1.0" rx=".5" transform="rotate(0.0 702.8 598.7)" style="--delay:-0.74s; opacity:0.080"/>
<rect class="micro-tick" x="875.6" y="346.6" width="5.3" height="1.0" rx=".5" transform="rotate(19.0 875.6 346.6)" style="--delay:-0.97s; opacity:0.145"/>
<rect class="micro-tick" x="776.1" y="190.0" width="4.0" height="1.0" rx=".5" transform="rotate(-38.0 776.1 190.0)" style="--delay:-1.20s; opacity:0.080"/>
<rect class="micro-tick" x="971.9" y="468.8" width="2.6" height="1.0" rx=".5" transform="rotate(-19.0 971.9 468.8)" style="--delay:-1.43s; opacity:0.145"/>
<rect class="micro-tick" x="692.8" y="490.8" width="5.0" height="1.0" rx=".5" transform="rotate(0.0 692.8 490.8)" style="--delay:-1.66s; opacity:0.080"/>
<rect class="micro-tick" x="555.0" y="279.6" width="3.6" height="1.0" rx=".5" transform="rotate(19.0 555.0 279.6)" style="--delay:-1.89s; opacity:0.145"/>
<rect class="micro-tick" x="832.9" y="286.0" width="2.2" height="1.0" rx=".5" transform="rotate(-38.0 832.9 286.0)" style="--delay:-2.12s; opacity:0.080"/>
<rect class="micro-tick" x="891.7" y="583.0" width="4.7" height="1.0" rx=".5" transform="rotate(-19.0 891.7 583.0)" style="--delay:-2.35s; opacity:0.145"/>
<rect class="micro-tick" x="594.3" y="278.4" width="3.2" height="1.0" rx=".5" transform="rotate(0.0 594.3 278.4)" style="--delay:-2.58s; opacity:0.080"/>
<rect class="micro-tick" x="728.1" y="321.1" width="5.7" height="1.0" rx=".5" transform="rotate(19.0 728.1 321.1)" style="--delay:-2.81s; opacity:0.145"/>
<rect class="micro-tick" x="512.7" y="313.6" width="4.3" height="1.0" rx=".5" transform="rotate(-38.0 512.7 313.6)" style="--delay:-3.04s; opacity:0.080"/>
<rect class="micro-tick" x="496.3" y="246.1" width="2.9" height="1.0" rx=".5" transform="rotate(-19.0 496.3 246.1)" style="--delay:-3.27s; opacity:0.145"/>
<rect class="micro-tick" x="605.3" y="312.3" width="5.3" height="1.0" rx=".5" transform="rotate(0.0 605.3 312.3)" style="--delay:-3.50s; opacity:0.080"/>
<rect class="micro-tick" x="497.2" y="308.0" width="4.0" height="1.0" rx=".5" transform="rotate(19.0 497.2 308.0)" style="--delay:-3.73s; opacity:0.145"/>
<rect class="micro-tick" x="901.0" y="517.3" width="2.6" height="1.0" rx=".5" transform="rotate(-38.0 901.0 517.3)" style="--delay:-3.96s; opacity:0.080"/>
<rect class="micro-tick" x="751.3" y="389.4" width="5.0" height="1.0" rx=".5" transform="rotate(-19.0 751.3 389.4)" style="--delay:-4.19s; opacity:0.145"/>
<rect class="micro-tick" x="664.7" y="217.1" width="3.6" height="1.0" rx=".5" transform="rotate(0.0 664.7 217.1)" style="--delay:-4.42s; opacity:0.080"/>
<rect class="micro-tick" x="936.3" y="266.7" width="2.2" height="1.0" rx=".5" transform="rotate(19.0 936.3 266.7)" style="--delay:-4.65s; opacity:0.145"/>
<rect class="micro-tick" x="705.3" y="484.6" width="4.7" height="1.0" rx=".5" transform="rotate(-38.0 705.3 484.6)" style="--delay:-4.88s; opacity:0.080"/>
<rect class="micro-tick" x="560.5" y="345.7" width="3.2" height="1.0" rx=".5" transform="rotate(-19.0 560.5 345.7)" style="--delay:-5.11s; opacity:0.145"/>
<rect class="micro-tick" x="609.4" y="199.7" width="5.7" height="1.0" rx=".5" transform="rotate(0.0 609.4 199.7)" style="--delay:-5.34s; opacity:0.080"/>
<rect class="micro-tick" x="531.5" y="241.5" width="4.3" height="1.0" rx=".5" transform="rotate(19.0 531.5 241.5)" style="--delay:-5.57s; opacity:0.145"/>
<rect class="micro-tick" x="528.5" y="469.4" width="2.9" height="1.0" rx=".5" transform="rotate(-38.0 528.5 469.4)" style="--delay:-5.80s; opacity:0.080"/>
<rect class="micro-tick" x="477.7" y="477.4" width="5.3" height="1.0" rx=".5" transform="rotate(-19.0 477.7 477.4)" style="--delay:-6.03s; opacity:0.145"/>
<rect class="micro-tick" x="900.3" y="200.3" width="4.0" height="1.0" rx=".5" transform="rotate(0.0 900.3 200.3)" style="--delay:-6.26s; opacity:0.080"/>
<rect class="micro-tick" x="481.1" y="263.0" width="5.0" height="1.0" rx=".5" transform="rotate(-38.0 481.1 263.0)" style="--delay:-6.72s; opacity:0.080"/>
<rect class="micro-tick" x="475.0" y="407.6" width="3.6" height="1.0" rx=".5" transform="rotate(-19.0 475.0 407.6)" style="--delay:-6.95s; opacity:0.145"/>
    </g>

    <!-- Observation rails: large-scale evidence entering from experiments, models, literature -->
    <g class="evidence">
      <line class="evidence-rail" x1="285" y1="172" x2="285" y2="606" style="--delay:0.00s"/>
<line class="evidence-rail" x1="320" y1="180" x2="320" y2="592" style="--delay:-0.55s"/>
<line class="evidence-rail" x1="357" y1="188" x2="357" y2="578" style="--delay:-1.10s"/>
<line class="evidence-rail" x1="396" y1="196" x2="396" y2="564" style="--delay:-1.65s"/>
      <circle class="evidence-dot" cx="285" cy="198.0" r="2.8" style="--delay:-0.00s; opacity:0.28"/>
<circle class="evidence-dot" cx="285" cy="245.8" r="2.1" style="--delay:-0.32s; opacity:0.48"/>
<circle class="evidence-dot" cx="285" cy="293.5" r="2.1" style="--delay:-0.64s; opacity:0.39"/>
<circle class="evidence-dot" cx="285" cy="341.2" r="2.1" style="--delay:-0.96s; opacity:0.31"/>
<circle class="evidence-dot" cx="285" cy="389.0" r="2.8" style="--delay:-1.28s; opacity:0.50"/>
<circle class="evidence-dot" cx="285" cy="436.8" r="2.1" style="--delay:-1.60s; opacity:0.42"/>
<circle class="evidence-dot" cx="285" cy="484.5" r="2.1" style="--delay:-1.92s; opacity:0.34"/>
<circle class="evidence-dot" cx="285" cy="532.2" r="2.1" style="--delay:-2.24s; opacity:0.53"/>
<circle class="evidence-dot" cx="285" cy="580.0" r="2.8" style="--delay:-2.56s; opacity:0.45"/>
<circle class="evidence-dot" cx="320" cy="206.0" r="2.1" style="--delay:-1.20s; opacity:0.42"/>
<circle class="evidence-dot" cx="320" cy="251.0" r="2.1" style="--delay:-1.52s; opacity:0.34"/>
<circle class="evidence-dot" cx="320" cy="296.0" r="2.1" style="--delay:-1.84s; opacity:0.53"/>
<circle class="evidence-dot" cx="320" cy="341.0" r="2.8" style="--delay:-2.16s; opacity:0.45"/>
<circle class="evidence-dot" cx="320" cy="386.0" r="2.1" style="--delay:-2.48s; opacity:0.36"/>
<circle class="evidence-dot" cx="320" cy="431.0" r="2.1" style="--delay:-2.80s; opacity:0.28"/>
<circle class="evidence-dot" cx="320" cy="476.0" r="2.1" style="--delay:-3.12s; opacity:0.48"/>
<circle class="evidence-dot" cx="320" cy="521.0" r="2.8" style="--delay:-3.44s; opacity:0.39"/>
<circle class="evidence-dot" cx="320" cy="566.0" r="2.1" style="--delay:-3.76s; opacity:0.31"/>
<circle class="evidence-dot" cx="357" cy="214.0" r="2.1" style="--delay:-2.40s; opacity:0.28"/>
<circle class="evidence-dot" cx="357" cy="256.2" r="2.1" style="--delay:-2.72s; opacity:0.48"/>
<circle class="evidence-dot" cx="357" cy="298.5" r="2.8" style="--delay:-3.04s; opacity:0.39"/>
<circle class="evidence-dot" cx="357" cy="340.8" r="2.1" style="--delay:-3.36s; opacity:0.31"/>
<circle class="evidence-dot" cx="357" cy="383.0" r="2.1" style="--delay:-3.68s; opacity:0.50"/>
<circle class="evidence-dot" cx="357" cy="425.2" r="2.1" style="--delay:-4.00s; opacity:0.42"/>
<circle class="evidence-dot" cx="357" cy="467.5" r="2.8" style="--delay:-4.32s; opacity:0.34"/>
<circle class="evidence-dot" cx="357" cy="509.8" r="2.1" style="--delay:-4.64s; opacity:0.53"/>
<circle class="evidence-dot" cx="357" cy="552.0" r="2.1" style="--delay:-4.96s; opacity:0.45"/>
<circle class="evidence-dot" cx="396" cy="222.0" r="2.1" style="--delay:-3.60s; opacity:0.42"/>
<circle class="evidence-dot" cx="396" cy="261.5" r="2.8" style="--delay:-3.92s; opacity:0.34"/>
<circle class="evidence-dot" cx="396" cy="301.0" r="2.1" style="--delay:-4.24s; opacity:0.53"/>
<circle class="evidence-dot" cx="396" cy="340.5" r="2.1" style="--delay:-4.56s; opacity:0.45"/>
<circle class="evidence-dot" cx="396" cy="380.0" r="2.1" style="--delay:-4.88s; opacity:0.36"/>
<circle class="evidence-dot" cx="396" cy="419.5" r="2.8" style="--delay:-5.20s; opacity:0.28"/>
<circle class="evidence-dot" cx="396" cy="459.0" r="2.1" style="--delay:-5.52s; opacity:0.48"/>
<circle class="evidence-dot" cx="396" cy="498.5" r="2.1" style="--delay:-5.84s; opacity:0.39"/>
<circle class="evidence-dot" cx="396" cy="538.0" r="2.1" style="--delay:-6.16s; opacity:0.31"/>
    </g>

    <!-- Deep scientific reasoning field -->
    <g class="orbit-field">
      <ellipse class="orbit-fragment" cx="745.0" cy="425.0" rx="190.0" ry="92.0" transform="rotate(-12.0 745.0 425.0)" style="--delay:0.00s; stroke-dasharray:64.0 120.0; opacity:0.180"/>
<ellipse class="orbit-fragment" cx="767.6" cy="421.6" rx="214.0" ry="101.0" transform="rotate(-7.8 767.6 421.6)" style="--delay:-0.70s; stroke-dasharray:71.0 135.0; opacity:0.170"/>
<ellipse class="orbit-fragment" cx="782.3" cy="412.2" rx="238.0" ry="110.0" transform="rotate(-3.6 782.3 412.2)" style="--delay:-1.40s; stroke-dasharray:78.0 150.0; opacity:0.160"/>
<ellipse class="orbit-fragment" cx="784.0" cy="398.9" rx="262.0" ry="119.0" transform="rotate(0.6 784.0 398.9)" style="--delay:-2.10s; stroke-dasharray:85.0 165.0; opacity:0.150"/>
<ellipse class="orbit-fragment" cx="772.0" cy="384.7" rx="286.0" ry="128.0" transform="rotate(4.8 772.0 384.7)" style="--delay:-2.80s; stroke-dasharray:92.0 180.0; opacity:0.140"/>
<ellipse class="orbit-fragment" cx="750.6" cy="372.9" rx="310.0" ry="137.0" transform="rotate(9.0 750.6 372.9)" style="--delay:-3.50s; stroke-dasharray:99.0 195.0; opacity:0.130"/>
<ellipse class="orbit-fragment" cx="727.3" cy="366.0" rx="334.0" ry="146.0" transform="rotate(13.2 727.3 366.0)" style="--delay:-4.20s; stroke-dasharray:106.0 210.0; opacity:0.120"/>
<ellipse class="orbit-fragment" cx="710.1" cy="365.7" rx="358.0" ry="155.0" transform="rotate(17.4 710.1 365.7)" style="--delay:-4.90s; stroke-dasharray:113.0 225.0; opacity:0.110"/>
<ellipse class="orbit-fragment" cx="705.2" cy="372.0" rx="382.0" ry="164.0" transform="rotate(21.6 705.2 372.0)" style="--delay:-5.60s; stroke-dasharray:120.0 240.0; opacity:0.100"/>
<ellipse class="orbit-fragment" cx="714.1" cy="383.5" rx="406.0" ry="173.0" transform="rotate(25.8 714.1 383.5)" style="--delay:-6.30s; stroke-dasharray:127.0 255.0; opacity:0.090"/>
    </g>

    <g class="reasoning-contours">
      <path class="reasoning-contour" pathLength="1" d="M405.0 208.0 C520.0 190.0 852.0 260.0 984.0 208.0" style="--delay:0.00s; --stroke-width:0.58; opacity:0.121"/>
<path class="reasoning-contour" pathLength="1" d="M415.9 232.0 C543.9 210.3 848.1 300.0 986.3 244.9" style="--delay:-0.33s; --stroke-width:0.66; opacity:0.142"/>
<path class="reasoning-contour" pathLength="1" d="M422.3 256.0 C564.5 224.2 836.9 336.2 992.9 274.0" style="--delay:-0.66s; --stroke-width:0.74; opacity:0.163"/>
<path class="reasoning-contour" pathLength="1" d="M421.7 280.0 C579.1 234.3 819.5 365.8 1002.6 292.2" style="--delay:-0.99s; --stroke-width:0.82; opacity:0.184"/>
<path class="reasoning-contour" pathLength="1" d="M414.3 304.0 C585.7 244.4 797.9 387.5 1013.9 302.9" style="--delay:-1.32s; --stroke-width:0.58; opacity:0.205"/>
<path class="reasoning-contour" pathLength="1" d="M403.1 328.0 C583.4 258.0 774.3 401.7 1024.9 314.4" style="--delay:-1.65s; --stroke-width:0.66; opacity:0.226"/>
<path class="reasoning-contour" pathLength="1" d="M392.6 352.0 C572.6 278.0 751.4 410.8 1033.7 334.1" style="--delay:-1.98s; --stroke-width:0.74; opacity:0.247"/>
<path class="reasoning-contour" pathLength="1" d="M387.2 376.0 C554.6 305.4 731.5 418.3 1039.0 364.6" style="--delay:-2.31s; --stroke-width:0.82; opacity:0.268"/>
<path class="reasoning-contour" pathLength="1" d="M389.1 400.0 C531.9 339.3 716.9 428.1 1039.7 402.1" style="--delay:-2.64s; --stroke-width:0.58; opacity:0.289"/>
<path class="reasoning-contour" pathLength="1" d="M397.4 424.0 C507.6 377.1 709.1 443.5 1035.9 438.3" style="--delay:-2.97s; --stroke-width:0.66; opacity:0.289"/>
<path class="reasoning-contour" pathLength="1" d="M408.9 448.0 C485.0 415.1 708.9 466.6 1028.1 465.8" style="--delay:-3.30s; --stroke-width:0.74; opacity:0.268"/>
<path class="reasoning-contour" pathLength="1" d="M418.7 472.0 C467.2 449.7 716.4 497.5 1017.6 482.5" style="--delay:-3.63s; --stroke-width:0.82; opacity:0.247"/>
<path class="reasoning-contour" pathLength="1" d="M423.0 496.0 C456.4 478.0 730.8 534.7 1006.2 492.9" style="--delay:-3.96s; --stroke-width:0.58; opacity:0.226"/>
<path class="reasoning-contour" pathLength="1" d="M419.9 520.0 C454.3 498.9 750.5 574.9 995.8 505.1" style="--delay:-4.29s; --stroke-width:0.66; opacity:0.205"/>
<path class="reasoning-contour" pathLength="1" d="M410.7 544.0 C461.1 513.2 773.4 614.5 988.0 526.4" style="--delay:-4.62s; --stroke-width:0.74; opacity:0.184"/>
<path class="reasoning-contour" pathLength="1" d="M399.2 568.0 C475.8 523.5 796.9 649.8 984.2 558.3" style="--delay:-4.95s; --stroke-width:0.82; opacity:0.163"/>
<path class="reasoning-contour" pathLength="1" d="M390.1 592.0 C496.6 533.4 818.7 678.0 985.1 596.2" style="--delay:-5.28s; --stroke-width:0.58; opacity:0.142"/>
<path class="reasoning-contour" pathLength="1" d="M387.0 616.0 C520.4 546.7 836.3 698.2 990.3 631.5" style="--delay:-5.61s; --stroke-width:0.66; opacity:0.121"/>
    </g>

    <!-- Soft posterior/confidence bands -->
    <g class="confidence-bands">
      <path class="confidence-band" d="M382.0 202.5 C560.0 194.5 770.0 259.0 1072.0 239.5 L1072.0 245.5 C770.0 280.0 560.0 222.0 382.0 216.0 Z" style="--delay:-0.40s"/>
<path class="confidence-band" d="M342.0 299.9 C555.0 280.4 780.0 339.4 1086.0 353.1 L1086.0 360.1 C780.0 364.2 555.0 312.9 342.0 315.8 Z" style="--delay:-1.30s"/>
<path class="confidence-band" d="M356.0 415.2 C565.0 424.4 784.0 353.8 1068.0 470.6 L1068.0 478.8 C784.0 382.3 565.0 461.8 356.0 433.6 Z" style="--delay:-2.20s"/>
<path class="confidence-band" d="M398.0 542.6 C590.0 500.3 790.0 544.1 1098.0 590.1 L1098.0 599.4 C790.0 576.5 590.0 542.6 398.0 563.4 Z" style="--delay:-3.10s"/>
    </g>

    <!-- Main hypothesis trajectories -->
    <g class="trajectories">
      <path class="trajectory trajectory-base" pathLength="1" d="M382.0 206.0 C560.0 206.0 770.0 268.0 1072.0 242.0" style="--delay:-0.40s"/>
<path class="trajectory trajectory-pulse" pathLength="1" d="M382.0 206.0 C560.0 206.0 770.0 268.0 1072.0 242.0" style="--delay:0.22s"/>
<path class="trajectory trajectory-base" pathLength="1" d="M342.0 304.0 C555.0 294.0 780.0 350.0 1086.0 356.0" style="--delay:-1.30s"/>
<path class="trajectory trajectory-pulse" pathLength="1" d="M342.0 304.0 C555.0 294.0 780.0 350.0 1086.0 356.0" style="--delay:-0.68s"/>
<path class="trajectory trajectory-base" pathLength="1" d="M356.0 420.0 C565.0 440.0 784.0 366.0 1068.0 474.0" style="--delay:-2.20s"/>
<path class="trajectory trajectory-pulse" pathLength="1" d="M356.0 420.0 C565.0 440.0 784.0 366.0 1068.0 474.0" style="--delay:-1.58s"/>
<path class="trajectory trajectory-base" pathLength="1" d="M398.0 548.0 C590.0 518.0 790.0 558.0 1098.0 594.0" style="--delay:-3.10s"/>
<path class="trajectory trajectory-pulse" pathLength="1" d="M398.0 548.0 C590.0 518.0 790.0 558.0 1098.0 594.0" style="--delay:-2.48s"/>
<path class="trajectory trajectory-base" pathLength="1" d="M320.0 382.0 C550.0 374.0 776.0 468.0 1068.0 474.0" style="--delay:-4.00s"/>
<path class="trajectory trajectory-pulse" pathLength="1" d="M320.0 382.0 C550.0 374.0 776.0 468.0 1068.0 474.0" style="--delay:-3.38s"/>
<path class="trajectory trajectory-base" pathLength="1" d="M284.0 492.0 C512.0 486.0 770.0 292.0 1072.0 242.0" style="--delay:-4.90s"/>
<path class="trajectory trajectory-pulse" pathLength="1" d="M284.0 492.0 C512.0 486.0 770.0 292.0 1072.0 242.0" style="--delay:-4.28s"/>
    </g>

    <!-- Causal DAG scaffold embedded inside the field -->
    <g class="causal-scaffold">
      <path class="dag-edge" pathLength="1" d="M462.0 292.0 C502.9 275.2 526.4 247.6 560.0 232.0" style="--delay:-0.65s"/>
<path class="dag-pulse" pathLength="1" d="M462.0 292.0 C502.9 275.2 526.4 247.6 560.0 232.0" style="--delay:-0.31s"/>
<path class="dag-edge" pathLength="1" d="M462.0 292.0 C512.6 308.2 542.4 340.4 584.0 356.0" style="--delay:-0.83s"/>
<path class="dag-pulse" pathLength="1" d="M462.0 292.0 C512.6 308.2 542.4 340.4 584.0 356.0" style="--delay:-0.49s"/>
<path class="dag-edge" pathLength="1" d="M472.0 450.0 C521.9 423.0 543.8 380.8 584.0 356.0" style="--delay:-1.01s"/>
<path class="dag-pulse" pathLength="1" d="M472.0 450.0 C521.9 423.0 543.8 380.8 584.0 356.0" style="--delay:-0.67s"/>
<path class="dag-edge" pathLength="1" d="M472.0 450.0 C518.5 465.4 536.7 504.3 574.0 520.0" style="--delay:-1.19s"/>
<path class="dag-pulse" pathLength="1" d="M472.0 450.0 C518.5 465.4 536.7 504.3 574.0 520.0" style="--delay:-0.85s"/>
<path class="dag-edge" pathLength="1" d="M560.0 232.0 C606.8 260.9 653.6 247.3 694.0 268.0" style="--delay:-1.37s"/>
<path class="dag-pulse" pathLength="1" d="M560.0 232.0 C606.8 260.9 653.6 247.3 694.0 268.0" style="--delay:-1.03s"/>
<path class="dag-edge" pathLength="1" d="M560.0 232.0 C627.1 285.4 668.6 339.8 724.0 386.0" style="--delay:-1.55s"/>
<path class="dag-pulse" pathLength="1" d="M560.0 232.0 C627.1 285.4 668.6 339.8 724.0 386.0" style="--delay:-1.21s"/>
<path class="dag-edge" pathLength="1" d="M584.0 356.0 C635.3 376.4 680.4 371.0 724.0 386.0" style="--delay:-1.73s"/>
<path class="dag-pulse" pathLength="1" d="M584.0 356.0 C635.3 376.4 680.4 371.0 724.0 386.0" style="--delay:-1.39s"/>
<path class="dag-edge" pathLength="1" d="M584.0 356.0 C649.9 407.3 682.5 466.9 736.0 512.0" style="--delay:-1.91s"/>
<path class="dag-pulse" pathLength="1" d="M584.0 356.0 C649.9 407.3 682.5 466.9 736.0 512.0" style="--delay:-1.57s"/>
<path class="dag-edge" pathLength="1" d="M574.0 520.0 C636.2 530.5 683.8 506.4 736.0 512.0" style="--delay:-2.09s"/>
<path class="dag-pulse" pathLength="1" d="M574.0 520.0 C636.2 530.5 683.8 506.4 736.0 512.0" style="--delay:-1.75s"/>
<path class="dag-edge" pathLength="1" d="M574.0 520.0 C676.6 524.3 750.3 564.7 836.0 572.0" style="--delay:-2.27s"/>
<path class="dag-pulse" pathLength="1" d="M574.0 520.0 C676.6 524.3 750.3 564.7 836.0 572.0" style="--delay:-1.93s"/>
<path class="dag-edge" pathLength="1" d="M694.0 268.0 C748.6 288.5 795.6 288.4 842.0 304.0" style="--delay:-2.45s"/>
<path class="dag-pulse" pathLength="1" d="M694.0 268.0 C748.6 288.5 795.6 288.4 842.0 304.0" style="--delay:-2.11s"/>
<path class="dag-edge" pathLength="1" d="M724.0 386.0 C763.6 347.3 807.4 334.8 842.0 304.0" style="--delay:-2.63s"/>
<path class="dag-pulse" pathLength="1" d="M724.0 386.0 C763.6 347.3 807.4 334.8 842.0 304.0" style="--delay:-2.29s"/>
<path class="dag-edge" pathLength="1" d="M724.0 386.0 C773.2 416.4 821.6 414.9 864.0 438.0" style="--delay:-2.81s"/>
<path class="dag-pulse" pathLength="1" d="M724.0 386.0 C773.2 416.4 821.6 414.9 864.0 438.0" style="--delay:-2.47s"/>
<path class="dag-edge" pathLength="1" d="M736.0 512.0 C777.8 472.1 827.1 468.7 864.0 438.0" style="--delay:-2.99s"/>
<path class="dag-pulse" pathLength="1" d="M736.0 512.0 C777.8 472.1 827.1 468.7 864.0 438.0" style="--delay:-2.65s"/>
<path class="dag-edge" pathLength="1" d="M736.0 512.0 C765.9 548.3 808.9 544.7 836.0 572.0" style="--delay:-3.17s"/>
<path class="dag-pulse" pathLength="1" d="M736.0 512.0 C765.9 548.3 808.9 544.7 836.0 572.0" style="--delay:-2.83s"/>
<path class="dag-edge" pathLength="1" d="M842.0 304.0 C887.6 312.6 918.1 335.2 956.0 344.0" style="--delay:-3.35s"/>
<path class="dag-pulse" pathLength="1" d="M842.0 304.0 C887.6 312.6 918.1 335.2 956.0 344.0" style="--delay:-3.01s"/>
<path class="dag-edge" pathLength="1" d="M864.0 438.0 C905.5 408.7 922.6 370.2 956.0 344.0" style="--delay:-3.53s"/>
<path class="dag-pulse" pathLength="1" d="M864.0 438.0 C905.5 408.7 922.6 370.2 956.0 344.0" style="--delay:-3.19s"/>
<path class="dag-edge" pathLength="1" d="M864.0 438.0 C902.4 459.5 913.6 495.9 944.0 516.0" style="--delay:-3.71s"/>
<path class="dag-pulse" pathLength="1" d="M864.0 438.0 C902.4 459.5 913.6 495.9 944.0 516.0" style="--delay:-3.37s"/>
<path class="dag-edge" pathLength="1" d="M836.0 572.0 C883.3 562.8 905.7 526.7 944.0 516.0" style="--delay:-3.89s"/>
<path class="dag-pulse" pathLength="1" d="M836.0 572.0 C883.3 562.8 905.7 526.7 944.0 516.0" style="--delay:-3.55s"/>
<path class="dag-edge" pathLength="1" d="M584.0 356.0 C727.2 402.4 824.9 473.5 944.0 516.0" style="--delay:-4.07s"/>
<path class="dag-pulse" pathLength="1" d="M584.0 356.0 C727.2 402.4 824.9 473.5 944.0 516.0" style="--delay:-3.73s"/>
      <g class="dag-node" transform="translate(462 292)" style="--delay:-0.40s">
  <circle class="dag-aura" r="11.7"/>
  <circle class="dag-ring" r="7.0"/>
  <circle class="dag-core" r="3.9"/>
</g>
<g class="dag-node" transform="translate(472 450)" style="--delay:-0.66s">
  <circle class="dag-aura" r="11.7"/>
  <circle class="dag-ring" r="7.0"/>
  <circle class="dag-core" r="3.9"/>
</g>
<g class="dag-node" transform="translate(560 232)" style="--delay:-0.92s">
  <circle class="dag-aura" r="13.2"/>
  <circle class="dag-ring" r="7.5"/>
  <circle class="dag-core" r="4.4"/>
</g>
<g class="dag-node" transform="translate(584 356)" style="--delay:-1.18s">
  <circle class="dag-aura" r="13.2"/>
  <circle class="dag-ring" r="7.5"/>
  <circle class="dag-core" r="4.4"/>
</g>
<g class="dag-node" transform="translate(574 520)" style="--delay:-1.44s">
  <circle class="dag-aura" r="13.2"/>
  <circle class="dag-ring" r="7.5"/>
  <circle class="dag-core" r="4.4"/>
</g>
<g class="dag-node" transform="translate(694 268)" style="--delay:-1.70s">
  <circle class="dag-aura" r="13.2"/>
  <circle class="dag-ring" r="7.5"/>
  <circle class="dag-core" r="4.4"/>
</g>
<g class="dag-node" transform="translate(724 386)" style="--delay:-1.96s">
  <circle class="dag-aura" r="13.2"/>
  <circle class="dag-ring" r="7.5"/>
  <circle class="dag-core" r="4.4"/>
</g>
<g class="dag-node" transform="translate(736 512)" style="--delay:-2.22s">
  <circle class="dag-aura" r="13.2"/>
  <circle class="dag-ring" r="7.5"/>
  <circle class="dag-core" r="4.4"/>
</g>
<g class="dag-node" transform="translate(842 304)" style="--delay:-2.48s">
  <circle class="dag-aura" r="13.2"/>
  <circle class="dag-ring" r="7.5"/>
  <circle class="dag-core" r="4.4"/>
</g>
<g class="dag-node" transform="translate(864 438)" style="--delay:-2.74s">
  <circle class="dag-aura" r="13.2"/>
  <circle class="dag-ring" r="7.5"/>
  <circle class="dag-core" r="4.4"/>
</g>
<g class="dag-node" transform="translate(836 572)" style="--delay:-3.00s">
  <circle class="dag-aura" r="13.2"/>
  <circle class="dag-ring" r="7.5"/>
  <circle class="dag-core" r="4.4"/>
</g>
<g class="dag-node" transform="translate(956 344)" style="--delay:-3.26s">
  <circle class="dag-aura" r="11.7"/>
  <circle class="dag-ring" r="7.0"/>
  <circle class="dag-core" r="3.9"/>
</g>
<g class="dag-node" transform="translate(944 516)" style="--delay:-3.52s">
  <circle class="dag-aura" r="11.7"/>
  <circle class="dag-ring" r="7.0"/>
  <circle class="dag-core" r="3.9"/>
</g>
    </g>

    <!-- Decision endpoints -->
    <g class="decision-layer">
      <g class="decision-node decision-a" transform="translate(1072 242)" style="--delay:0.00s">
  <circle class="decision-halo" r="26"/>
  <circle class="decision-ring-outer" r="18"/>
  <circle class="decision-ring-inner" r="9.2"/>
  <circle class="decision-core" r="5.4"/>
</g>
<g class="decision-node decision-b" transform="translate(1086 356)" style="--delay:-0.70s">
  <circle class="decision-halo" r="26"/>
  <circle class="decision-ring-outer" r="18"/>
  <circle class="decision-ring-inner" r="9.2"/>
  <circle class="decision-core" r="5.4"/>
</g>
<g class="decision-node decision-c" transform="translate(1068 474)" style="--delay:-1.40s">
  <circle class="decision-halo" r="26"/>
  <circle class="decision-ring-outer" r="18"/>
  <circle class="decision-ring-inner" r="9.2"/>
  <circle class="decision-core" r="5.4"/>
</g>
<g class="decision-node decision-d" transform="translate(1098 594)" style="--delay:-2.10s">
  <circle class="decision-halo" r="26"/>
  <circle class="decision-ring-outer" r="18"/>
  <circle class="decision-ring-inner" r="9.2"/>
  <circle class="decision-core" r="5.4"/>
</g>
    </g>

    <!-- Moving signals: evidence becoming explanation -->
    <g class="signals">
      <circle class="signal-particle" r="2.20">
  <animateMotion dur="7.80s" begin="-0.40s" repeatCount="indefinite" rotate="auto">
    <mpath href="#major-path-0"/>
  </animateMotion>
  <animate attributeName="opacity" values="0;.92;.58;0" keyTimes="0;.16;.76;1" dur="7.80s" begin="-0.40s" repeatCount="indefinite"/>
</circle>
<circle class="signal-particle" r="2.08">
  <animateMotion dur="8.35s" begin="-1.30s" repeatCount="indefinite" rotate="auto">
    <mpath href="#major-path-1"/>
  </animateMotion>
  <animate attributeName="opacity" values="0;.92;.58;0" keyTimes="0;.16;.76;1" dur="8.35s" begin="-1.30s" repeatCount="indefinite"/>
</circle>
<circle class="signal-particle" r="1.96">
  <animateMotion dur="8.90s" begin="-2.20s" repeatCount="indefinite" rotate="auto">
    <mpath href="#major-path-2"/>
  </animateMotion>
  <animate attributeName="opacity" values="0;.92;.58;0" keyTimes="0;.16;.76;1" dur="8.90s" begin="-2.20s" repeatCount="indefinite"/>
</circle>
<circle class="signal-particle" r="1.84">
  <animateMotion dur="9.45s" begin="-3.10s" repeatCount="indefinite" rotate="auto">
    <mpath href="#major-path-3"/>
  </animateMotion>
  <animate attributeName="opacity" values="0;.92;.58;0" keyTimes="0;.16;.76;1" dur="9.45s" begin="-3.10s" repeatCount="indefinite"/>
</circle>
<circle class="signal-particle" r="1.72">
  <animateMotion dur="10.00s" begin="-4.00s" repeatCount="indefinite" rotate="auto">
    <mpath href="#major-path-4"/>
  </animateMotion>
  <animate attributeName="opacity" values="0;.92;.58;0" keyTimes="0;.16;.76;1" dur="10.00s" begin="-4.00s" repeatCount="indefinite"/>
</circle>
<circle class="signal-particle" r="1.72">
  <animateMotion dur="10.55s" begin="-4.90s" repeatCount="indefinite" rotate="auto">
    <mpath href="#major-path-5"/>
  </animateMotion>
  <animate attributeName="opacity" values="0;.92;.58;0" keyTimes="0;.16;.76;1" dur="10.55s" begin="-4.90s" repeatCount="indefinite"/>
</circle>
<circle class="signal-particle dim" r="1.55">
  <animateMotion dur="6.20s" begin="-1.20s" repeatCount="indefinite" rotate="auto">
    <mpath href="#intake-a"/>
  </animateMotion>
  <animate attributeName="opacity" values="0;.55;.36;0" keyTimes="0;.20;.76;1" dur="6.20s" begin="-1.20s" repeatCount="indefinite"/>
</circle>
<circle class="signal-particle dim" r="1.4">
  <animateMotion dur="6.90s" begin="-3.80s" repeatCount="indefinite" rotate="auto">
    <mpath href="#intake-b"/>
  </animateMotion>
  <animate attributeName="opacity" values="0;.55;.36;0" keyTimes="0;.20;.76;1" dur="6.90s" begin="-3.80s" repeatCount="indefinite"/>
</circle>
<circle class="signal-particle dim" r="1.35">
  <animateMotion dur="7.30s" begin="-5.10s" repeatCount="indefinite" rotate="auto">
    <mpath href="#intake-c"/>
  </animateMotion>
  <animate attributeName="opacity" values="0;.55;.36;0" keyTimes="0;.20;.76;1" dur="7.30s" begin="-5.10s" repeatCount="indefinite"/>
</circle>
<circle class="signal-particle dim" r="1.25">
  <animateMotion dur="7.70s" begin="-6.00s" repeatCount="indefinite" rotate="auto">
    <mpath href="#intake-d"/>
  </animateMotion>
  <animate attributeName="opacity" values="0;.55;.36;0" keyTimes="0;.20;.76;1" dur="7.70s" begin="-6.00s" repeatCount="indefinite"/>
</circle>
    </g>
  </g>
</svg>
